<svg width="110" height="146" viewBox="0 0 110 146" fill="none" xmlns="http://www.w3.org/2000/svg">
<rect x="1" y="1" width="108" height="144" rx="4" fill="white" stroke="black" stroke-width="2"/>
<path d="M103.105 135.005L102.892 136.273H96.919L97.1321 135.005H99.3587L100.353 129H101.873L100.879 135.005H103.105ZM95.1257 132.153L95.6513 129H97.1605L95.9531 136.273H94.4865L94.9411 133.492H94.8807C94.7055 133.814 94.4652 134.066 94.1598 134.249C93.8544 134.433 93.4934 134.526 93.0767 134.526C92.6979 134.526 92.3819 134.443 92.1286 134.277C91.8729 134.114 91.6918 133.878 91.5852 133.57C91.4787 133.265 91.4609 132.899 91.532 132.473L92.1143 129H93.6236L93.0909 132.203C93.0365 132.539 93.0803 132.801 93.2223 132.988C93.362 133.175 93.5845 133.268 93.8899 133.268C94.0959 133.268 94.2853 133.225 94.4581 133.137C94.6309 133.049 94.7765 132.922 94.8949 132.754C95.0109 132.588 95.0878 132.388 95.1257 132.153ZM88.4593 128.893C89.0181 128.893 89.4809 129.007 89.8478 129.234C90.2148 129.464 90.4728 129.788 90.622 130.207C90.7688 130.629 90.7936 131.127 90.6966 131.702C90.6019 132.263 90.4113 132.756 90.1248 133.18C89.836 133.603 89.4738 133.934 89.0382 134.17C88.6026 134.407 88.1172 134.526 87.5822 134.526C87.2224 134.526 86.8968 134.468 86.6056 134.352C86.3121 134.238 86.0682 134.065 85.8741 133.833C85.68 133.603 85.5474 133.316 85.4764 132.97C85.403 132.625 85.4042 132.22 85.4799 131.756L85.5474 131.34H90.1497L90.0041 132.278H86.8223C86.7868 132.496 86.801 132.688 86.8649 132.857C86.9288 133.025 87.0353 133.156 87.1845 133.251C87.3336 133.348 87.5171 133.396 87.7349 133.396C87.9574 133.396 88.1658 133.342 88.3599 133.233C88.554 133.124 88.7174 132.981 88.85 132.803C88.9802 132.628 89.0642 132.438 89.1021 132.232L89.269 131.301C89.3163 131.015 89.3069 130.777 89.2406 130.587C89.1719 130.398 89.0536 130.256 88.8855 130.161C88.7174 130.069 88.5043 130.023 88.2463 130.023C88.0782 130.023 87.9208 130.046 87.774 130.094C87.6248 130.141 87.4922 130.211 87.3762 130.303C87.2602 130.398 87.1655 130.515 87.0922 130.655L85.7108 130.562C85.8386 130.226 86.0327 129.933 86.2931 129.682C86.5536 129.433 86.8672 129.239 87.2342 129.099C87.5988 128.962 88.0072 128.893 88.4593 128.893ZM81.3944 136.273H79.498L78.3013 131.386H78.2161L75.4071 136.273H73.5108L74.7182 129H76.2097L75.4213 133.734H75.4853L78.1415 129.036H79.1607L80.2544 133.751H80.3148L81.1103 129H82.6017L81.3944 136.273ZM73.4798 129L72.5707 134.455H71.0579L71.967 129H73.4798ZM71.658 135.165C71.8829 135.165 72.0688 135.239 72.2156 135.388C72.36 135.54 72.4192 135.72 72.3931 135.928C72.3671 136.141 72.2653 136.321 72.0877 136.468C71.9102 136.617 71.7089 136.692 71.484 136.692C71.2591 136.692 71.0756 136.617 70.9336 136.468C70.7915 136.321 70.7324 136.141 70.756 135.928C70.7797 135.72 70.8803 135.54 71.0579 135.388C71.2331 135.239 71.4331 135.165 71.658 135.165ZM68.7097 132.153L69.2353 129H70.7445L69.8354 134.455H68.3972L68.5534 133.492H68.4931C68.3203 133.812 68.0764 134.064 67.7615 134.249C67.4443 134.433 67.0833 134.526 66.6784 134.526C66.2997 134.526 65.9836 134.443 65.7303 134.277C65.4746 134.111 65.2947 133.876 65.1905 133.57C65.084 133.265 65.0662 132.899 65.1373 132.473L65.7196 129H67.2324L66.6962 132.203C66.6417 132.537 66.6844 132.797 66.824 132.984C66.9614 133.174 67.1827 133.268 67.4881 133.268C67.6917 133.268 67.8787 133.225 68.0492 133.137C68.2196 133.049 68.3629 132.922 68.4789 132.754C68.5925 132.588 68.6694 132.388 68.7097 132.153ZM62.5316 128.911C62.9483 128.911 63.3069 129.018 63.6076 129.231C63.9059 129.446 64.119 129.762 64.2468 130.179C64.3723 130.598 64.3841 131.112 64.2823 131.72C64.1781 132.345 63.9911 132.865 63.7212 133.279C63.4513 133.696 63.1317 134.007 62.7624 134.213C62.3931 134.421 62.0084 134.526 61.6083 134.526C61.3053 134.526 61.0603 134.473 60.8732 134.369C60.6838 134.268 60.5382 134.14 60.4364 133.986C60.3346 133.834 60.2636 133.685 60.2234 133.538H60.1772L59.7191 136.273H58.2099L59.4173 129H60.9087L60.7631 129.874H60.8271C60.9218 129.722 61.0472 129.572 61.2035 129.423C61.3574 129.276 61.5444 129.154 61.7646 129.057C61.9824 128.96 62.238 128.911 62.5316 128.911ZM61.864 130.115C61.6225 130.115 61.4047 130.181 61.2106 130.314C61.0165 130.449 60.8531 130.637 60.7205 130.879C60.5879 131.12 60.4956 131.403 60.4435 131.727C60.3891 132.052 60.3879 132.333 60.44 132.572C60.4921 132.812 60.5939 132.996 60.7454 133.126C60.8945 133.257 61.0922 133.322 61.3384 133.322C61.587 133.322 61.8072 133.254 61.9989 133.119C62.1883 132.984 62.3458 132.797 62.4712 132.558C62.5943 132.319 62.6819 132.042 62.734 131.727C62.7861 131.41 62.7897 131.129 62.7447 130.886C62.6997 130.644 62.6038 130.455 62.457 130.317C62.3103 130.183 62.1126 130.115 61.864 130.115Z" fill="black"/>
<circle cx="54.5" cy="70.5" r="35.5" fill="#F7C6FF"/>
<circle cx="55" cy="71" r="27.5" fill="#F7C6FF" stroke="white" stroke-width="5"/>
<path d="M6.89489 9.99503L7.10795 8.72727H13.081L12.8679 9.99503H10.6413L9.64702 16H8.12713L9.12145 9.99503H6.89489ZM14.8743 12.8466L14.3487 16H12.8395L14.0469 8.72727H15.5135L15.0589 11.5078H15.1193C15.2945 11.1858 15.5348 10.9337 15.8402 10.7514C16.1456 10.5668 16.5066 10.4744 16.9233 10.4744C17.3021 10.4744 17.6181 10.5573 17.8714 10.723C18.1271 10.8864 18.3082 11.1219 18.4148 11.4297C18.5213 11.7351 18.5391 12.1009 18.468 12.527L17.8857 16H16.3764L16.9091 12.7969C16.9635 12.4607 16.9197 12.1991 16.7777 12.0121C16.638 11.825 16.4155 11.7315 16.1101 11.7315C15.9041 11.7315 15.7147 11.7753 15.5419 11.8629C15.3691 11.9505 15.2235 12.0784 15.1051 12.2464C14.9891 12.4122 14.9122 12.6122 14.8743 12.8466ZM21.5407 16.1065C20.9819 16.1065 20.5191 15.9929 20.1522 15.7656C19.7852 15.536 19.5272 15.2116 19.378 14.7926C19.2312 14.3712 19.2064 13.8729 19.3034 13.2976C19.3981 12.7365 19.5887 12.2441 19.8752 11.8203C20.164 11.3965 20.5262 11.0663 20.9618 10.8295C21.3974 10.5928 21.8828 10.4744 22.4178 10.4744C22.7776 10.4744 23.1032 10.5324 23.3944 10.6484C23.6879 10.7621 23.9318 10.9349 24.1259 11.1669C24.32 11.3965 24.4526 11.6842 24.5236 12.0298C24.597 12.3755 24.5958 12.7803 24.5201 13.2443L24.4526 13.6598H19.8503L19.9959 12.7223H23.1777C23.2132 12.5045 23.199 12.3116 23.1351 12.1435C23.0712 11.9754 22.9647 11.844 22.8155 11.7493C22.6664 11.6522 22.4829 11.6037 22.2651 11.6037C22.0426 11.6037 21.8342 11.6581 21.6401 11.767C21.446 11.8759 21.2826 12.0192 21.15 12.1967C21.0198 12.3719 20.9358 12.5625 20.8979 12.7685L20.731 13.6989C20.6837 13.9853 20.6931 14.2232 20.7594 14.4126C20.8281 14.602 20.9464 14.7441 21.1145 14.8388C21.2826 14.9311 21.4957 14.9773 21.7537 14.9773C21.9218 14.9773 22.0792 14.9536 22.226 14.9062C22.3752 14.8589 22.5078 14.7891 22.6238 14.6967C22.7398 14.602 22.8345 14.4848 22.9078 14.3452L24.2892 14.4375C24.1614 14.7737 23.9673 15.0672 23.7069 15.3182C23.4464 15.5668 23.1328 15.7609 22.7658 15.9006C22.4012 16.0379 21.9928 16.1065 21.5407 16.1065ZM28.6056 8.72727H30.502L31.6987 13.6136H31.7839L34.5929 8.72727H36.4892L35.2818 16H33.7903L34.5787 11.2663H34.5147L31.8585 15.9645H30.8393L29.7456 11.2486H29.6852L28.8897 16H27.3983L28.6056 8.72727ZM36.5202 16L37.4293 10.5455H38.9421L38.033 16H36.5202ZM38.342 9.83523C38.1171 9.83523 37.9312 9.76065 37.7844 9.61151C37.64 9.45999 37.5808 9.28007 37.6069 9.07173C37.6329 8.85866 37.7347 8.67874 37.9123 8.53196C38.0898 8.38281 38.2911 8.30824 38.516 8.30824C38.7409 8.30824 38.9244 8.38281 39.0664 8.53196C39.2085 8.67874 39.2676 8.85866 39.244 9.07173C39.2203 9.28007 39.1197 9.45999 38.9421 9.61151C38.7669 9.76065 38.5669 9.83523 38.342 9.83523ZM41.2903 12.8466L40.7647 16H39.2555L40.1646 10.5455H41.6028L41.4466 11.5078H41.5069C41.6797 11.1882 41.9236 10.9361 42.2385 10.7514C42.5557 10.5668 42.9167 10.4744 43.3216 10.4744C43.7003 10.4744 44.0164 10.5573 44.2697 10.723C44.5254 10.8887 44.7053 11.1243 44.8095 11.4297C44.916 11.7351 44.9338 12.1009 44.8627 12.527L44.2804 16H42.7676L43.3038 12.7969C43.3583 12.4631 43.3156 12.2027 43.176 12.0156C43.0386 11.8262 42.8173 11.7315 42.5119 11.7315C42.3083 11.7315 42.1213 11.7753 41.9508 11.8629C41.7804 11.9505 41.6371 12.0784 41.5211 12.2464C41.4075 12.4122 41.3306 12.6122 41.2903 12.8466ZM47.4684 16.0888C47.0517 16.0888 46.6931 15.9822 46.3924 15.7692C46.0941 15.5537 45.881 15.2377 45.7532 14.821C45.6277 14.402 45.6159 13.8883 45.7177 13.2798C45.8219 12.6548 46.0089 12.1352 46.2788 11.7209C46.5487 11.3042 46.8683 10.9929 47.2376 10.7869C47.6069 10.5786 47.9916 10.4744 48.3917 10.4744C48.6947 10.4744 48.9397 10.5265 49.1268 10.6307C49.3162 10.7325 49.4618 10.8603 49.5636 11.0142C49.6654 11.1657 49.7364 11.3149 49.7766 11.4616H49.8228L50.2809 8.72727H51.7901L50.5827 16H49.0913L49.2369 15.1264H49.1729C49.0782 15.2779 48.9528 15.4283 48.7965 15.5774C48.6426 15.7242 48.4556 15.8461 48.2354 15.9432C48.0176 16.0402 47.762 16.0888 47.4684 16.0888ZM48.136 14.8849C48.3775 14.8849 48.5953 14.8187 48.7894 14.6861C48.9835 14.5511 49.1469 14.3629 49.2795 14.1214C49.4121 13.88 49.5044 13.5971 49.5565 13.2727C49.6109 12.9484 49.6121 12.6667 49.56 12.4276C49.5079 12.1884 49.4061 12.0038 49.2546 11.8736C49.1055 11.7434 48.9078 11.6783 48.6616 11.6783C48.413 11.6783 48.1928 11.7457 48.0011 11.8807C47.8117 12.0156 47.6542 12.2027 47.5288 12.4418C47.4057 12.6809 47.3181 12.9579 47.266 13.2727C47.2139 13.59 47.2103 13.8705 47.2553 14.1143C47.3003 14.3558 47.3962 14.5452 47.543 14.6825C47.6897 14.8175 47.8874 14.8849 48.136 14.8849Z" fill="black"/>
<line x1="6" y1="18.5" x2="55" y2="18.5" stroke="black"/>
<line x1="56" y1="124.5" x2="104" y2="124.5" stroke="black"/>
</svg>
