<svg width="160" height="250" viewBox="0 0 160 250" fill="none" xmlns="http://www.w3.org/2000/svg">
<rect x="1" y="1" width="158" height="248" rx="4" fill="white" stroke="black" stroke-width="2"/>
<path d="M9.07386 13.794L9.32955 12.2727H16.4972L16.2415 13.794H13.5696L12.3764 21H10.5526L11.7457 13.794H9.07386ZM18.6491 17.2159L18.0185 21H16.2074L17.6562 12.2727H19.4162L18.8707 15.6094H18.9432C19.1534 15.223 19.4418 14.9205 19.8082 14.7017C20.1747 14.4801 20.608 14.3693 21.108 14.3693C21.5625 14.3693 21.9418 14.4688 22.2457 14.6676C22.5526 14.8636 22.7699 15.1463 22.8977 15.5156C23.0256 15.8821 23.0469 16.321 22.9616 16.8324L22.2628 21H20.4517L21.0909 17.1562C21.1563 16.7528 21.1037 16.4389 20.9332 16.2145C20.7656 15.9901 20.4986 15.8778 20.1321 15.8778C19.8849 15.8778 19.6577 15.9304 19.4503 16.0355C19.2429 16.1406 19.0682 16.294 18.9261 16.4957C18.7869 16.6946 18.6946 16.9347 18.6491 17.2159ZM26.6488 21.1278C25.9783 21.1278 25.4229 20.9915 24.9826 20.7188C24.5423 20.4432 24.2326 20.054 24.0536 19.5511C23.8775 19.0455 23.8477 18.4474 23.9641 17.7571C24.0778 17.0838 24.3065 16.4929 24.6502 15.9844C24.9968 15.4759 25.4315 15.0795 25.9542 14.7955C26.4769 14.5114 27.0593 14.3693 27.7013 14.3693C28.1332 14.3693 28.5238 14.4389 28.8732 14.5781C29.2255 14.7145 29.5181 14.9219 29.7511 15.2003C29.984 15.4759 30.1431 15.821 30.2283 16.2358C30.3164 16.6506 30.315 17.1364 30.2241 17.6932L30.1431 18.1918H24.6204L24.7951 17.0668H28.6133C28.6559 16.8054 28.6388 16.5739 28.5621 16.3722C28.4854 16.1705 28.3576 16.0128 28.1786 15.8991C27.9996 15.7827 27.7795 15.7244 27.5181 15.7244C27.2511 15.7244 27.0011 15.7898 26.7681 15.9205C26.5352 16.0511 26.3391 16.223 26.18 16.4361C26.0238 16.6463 25.9229 16.875 25.8775 17.1222L25.6772 18.2386C25.6204 18.5824 25.6317 18.8679 25.7113 19.0952C25.7937 19.3224 25.9357 19.4929 26.1374 19.6065C26.3391 19.7173 26.5948 19.7727 26.9045 19.7727C27.1062 19.7727 27.2951 19.7443 27.4712 19.6875C27.6502 19.6307 27.8093 19.5469 27.9485 19.4361C28.0877 19.3224 28.2013 19.1818 28.2894 19.0142L29.9471 19.125C29.7937 19.5284 29.5607 19.8807 29.2482 20.1818C28.9357 20.4801 28.5593 20.7131 28.119 20.8807C27.6815 21.0455 27.1914 21.1278 26.6488 21.1278ZM35.1268 12.2727H37.4023L38.8384 18.1364H38.9407L42.3114 12.2727H44.587L43.1381 21H41.3484L42.2944 15.3196H42.2177L39.0302 20.9574H37.8072L36.4947 15.2983H36.4222L35.4677 21H33.6779L35.1268 12.2727ZM44.6243 21L45.7152 14.4545H47.5305L46.4396 21H44.6243ZM46.8104 13.6023C46.5405 13.6023 46.3175 13.5128 46.1413 13.3338C45.968 13.152 45.897 12.9361 45.9283 12.6861C45.9595 12.4304 46.0817 12.2145 46.2947 12.0384C46.5078 11.8594 46.7493 11.7699 47.0192 11.7699C47.2891 11.7699 47.5092 11.8594 47.6797 12.0384C47.8501 12.2145 47.9212 12.4304 47.8928 12.6861C47.8643 12.9361 47.7436 13.152 47.5305 13.3338C47.3203 13.5128 47.0803 13.6023 46.8104 13.6023ZM50.3484 17.2159L49.7177 21H47.9066L48.9975 14.4545H50.7234L50.5359 15.6094H50.6083C50.8157 15.2259 51.1083 14.9233 51.4862 14.7017C51.8668 14.4801 52.3001 14.3693 52.7859 14.3693C53.2404 14.3693 53.6197 14.4688 53.9237 14.6676C54.2305 14.8665 54.4464 15.1491 54.5714 15.5156C54.6992 15.8821 54.7205 16.321 54.6353 16.8324L53.9364 21H52.1211L52.7646 17.1562C52.8299 16.7557 52.7788 16.4432 52.6112 16.2188C52.4464 15.9915 52.1808 15.8778 51.8143 15.8778C51.57 15.8778 51.3455 15.9304 51.141 16.0355C50.9364 16.1406 50.7646 16.294 50.6254 16.4957C50.489 16.6946 50.3967 16.9347 50.3484 17.2159ZM57.7621 21.1065C57.2621 21.1065 56.8317 20.9787 56.4709 20.723C56.1129 20.4645 55.8572 20.0852 55.7038 19.5852C55.5533 19.0824 55.5391 18.4659 55.6612 17.7358C55.7862 16.9858 56.0107 16.3622 56.3345 15.8651C56.6584 15.3651 57.0419 14.9915 57.4851 14.7443C57.9283 14.4943 58.3899 14.3693 58.87 14.3693C59.2337 14.3693 59.5277 14.4318 59.7521 14.5568C59.9794 14.679 60.1541 14.8324 60.2763 15.017C60.3984 15.1989 60.4837 15.3778 60.532 15.554H60.5874L61.1371 12.2727H62.9482L61.4993 21H59.7095L59.8842 19.9517H59.8075C59.6939 20.1335 59.5433 20.3139 59.3558 20.4929C59.1712 20.669 58.9467 20.8153 58.6825 20.9318C58.4212 21.0483 58.1143 21.1065 57.7621 21.1065ZM58.5632 19.6619C58.853 19.6619 59.1143 19.5824 59.3473 19.4233C59.5803 19.2614 59.7763 19.0355 59.9354 18.7457C60.0945 18.456 60.2053 18.1165 60.2678 17.7273C60.3331 17.3381 60.3345 17 60.272 16.7131C60.2095 16.4261 60.0874 16.2045 59.9055 16.0483C59.7266 15.892 59.4893 15.8139 59.1939 15.8139C58.8956 15.8139 58.6314 15.8949 58.4013 16.0568C58.174 16.2187 57.9851 16.4432 57.8345 16.7301C57.6868 17.017 57.5817 17.3494 57.5192 17.7273C57.4567 18.108 57.4524 18.4446 57.5064 18.7372C57.5604 19.027 57.6754 19.2543 57.8516 19.419C58.0277 19.581 58.2649 19.6619 58.5632 19.6619Z" fill="black"/>
<path d="M150.926 234.206L150.67 235.727H143.503L143.759 234.206H146.43L147.624 227H149.447L148.254 234.206H150.926ZM141.351 230.784L141.982 227H143.793L142.344 235.727H140.584L141.129 232.391H141.057C140.847 232.777 140.558 233.08 140.192 233.298C139.825 233.52 139.392 233.631 138.892 233.631C138.437 233.631 138.058 233.531 137.754 233.332C137.447 233.136 137.23 232.854 137.102 232.484C136.974 232.118 136.953 231.679 137.038 231.168L137.737 227H139.548L138.909 230.844C138.844 231.247 138.896 231.561 139.067 231.786C139.234 232.01 139.501 232.122 139.868 232.122C140.115 232.122 140.342 232.07 140.55 231.964C140.757 231.859 140.932 231.706 141.074 231.504C141.213 231.305 141.305 231.065 141.351 230.784ZM133.351 226.872C134.022 226.872 134.577 227.009 135.017 227.281C135.458 227.557 135.767 227.946 135.946 228.449C136.123 228.955 136.152 229.553 136.036 230.243C135.922 230.916 135.694 231.507 135.35 232.016C135.003 232.524 134.569 232.92 134.046 233.205C133.523 233.489 132.941 233.631 132.299 233.631C131.867 233.631 131.476 233.561 131.127 233.422C130.775 233.286 130.482 233.078 130.249 232.8C130.016 232.524 129.857 232.179 129.772 231.764C129.684 231.349 129.685 230.864 129.776 230.307L129.857 229.808H135.38L135.205 230.933H131.387C131.344 231.195 131.361 231.426 131.438 231.628C131.515 231.83 131.642 231.987 131.821 232.101C132 232.217 132.221 232.276 132.482 232.276C132.749 232.276 132.999 232.21 133.232 232.08C133.465 231.949 133.661 231.777 133.82 231.564C133.976 231.354 134.077 231.125 134.123 230.878L134.323 229.761C134.38 229.418 134.368 229.132 134.289 228.905C134.206 228.678 134.064 228.507 133.863 228.393C133.661 228.283 133.405 228.227 133.096 228.227C132.894 228.227 132.705 228.256 132.529 228.312C132.35 228.369 132.191 228.453 132.051 228.564C131.912 228.678 131.799 228.818 131.711 228.986L130.053 228.875C130.206 228.472 130.439 228.119 130.752 227.818C131.064 227.52 131.441 227.287 131.881 227.119C132.319 226.955 132.809 226.872 133.351 226.872ZM124.873 235.727H122.598L121.162 229.864H121.059L117.689 235.727H115.413L116.862 227H118.652L117.706 232.68H117.782L120.97 227.043H122.193L123.505 232.702H123.578L124.532 227H126.322L124.873 235.727ZM115.376 227L114.285 233.545H112.469L113.56 227H115.376ZM113.19 234.398C113.46 234.398 113.683 234.487 113.859 234.666C114.032 234.848 114.103 235.064 114.072 235.314C114.04 235.57 113.918 235.786 113.705 235.962C113.492 236.141 113.251 236.23 112.981 236.23C112.711 236.23 112.491 236.141 112.32 235.962C112.15 235.786 112.079 235.57 112.107 235.314C112.136 235.064 112.256 234.848 112.469 234.666C112.68 234.487 112.92 234.398 113.19 234.398ZM109.652 230.784L110.282 227H112.093L111.002 233.545H109.277L109.464 232.391H109.392C109.184 232.774 108.892 233.077 108.514 233.298C108.133 233.52 107.7 233.631 107.214 233.631C106.76 233.631 106.38 233.531 106.076 233.332C105.77 233.134 105.554 232.851 105.429 232.484C105.301 232.118 105.279 231.679 105.365 231.168L106.064 227H107.879L107.235 230.844C107.17 231.244 107.221 231.557 107.389 231.781C107.554 232.009 107.819 232.122 108.186 232.122C108.43 232.122 108.654 232.07 108.859 231.964C109.064 231.859 109.235 231.706 109.375 231.504C109.511 231.305 109.603 231.065 109.652 230.784ZM102.238 226.893C102.738 226.893 103.168 227.021 103.529 227.277C103.887 227.536 104.143 227.915 104.296 228.415C104.447 228.918 104.461 229.534 104.339 230.264C104.214 231.014 103.989 231.638 103.665 232.135C103.342 232.635 102.958 233.009 102.515 233.256C102.072 233.506 101.61 233.631 101.13 233.631C100.766 233.631 100.472 233.568 100.248 233.443C100.021 233.321 99.8459 233.168 99.7237 232.983C99.6016 232.801 99.5163 232.622 99.468 232.446H99.4126L98.8629 235.727H97.0518L98.5007 227H100.29L100.116 228.048H100.192C100.306 227.866 100.457 227.686 100.644 227.507C100.829 227.331 101.053 227.185 101.317 227.068C101.579 226.952 101.886 226.893 102.238 226.893ZM101.437 228.338C101.147 228.338 100.886 228.418 100.653 228.577C100.42 228.739 100.224 228.964 100.065 229.254C99.9055 229.544 99.7947 229.884 99.7322 230.273C99.6669 230.662 99.6655 231 99.728 231.287C99.7905 231.574 99.9126 231.795 100.094 231.952C100.273 232.108 100.511 232.186 100.806 232.186C101.104 232.186 101.369 232.105 101.599 231.943C101.826 231.781 102.015 231.557 102.165 231.27C102.313 230.983 102.418 230.651 102.481 230.273C102.543 229.892 102.548 229.555 102.494 229.263C102.44 228.973 102.325 228.746 102.148 228.581C101.972 228.419 101.735 228.338 101.437 228.338Z" fill="black"/>
<line x1="93" y1="223.5" x2="155" y2="223.5" stroke="black"/>
<line x1="6" y1="23.5" x2="68" y2="23.5" stroke="black"/>
<circle cx="80.5" cy="125.5" r="52.5" fill="#F7C6FF"/>
<circle cx="80" cy="125" r="42" stroke="white" stroke-width="6"/>
</svg>
